<svg width="18" height="18" viewBox="0 0 18 18" fill="none" xmlns="http://www.w3.org/2000/svg">
<path d="M13.7999 4.86665C14.3304 4.86665 14.8391 4.65593 15.2142 4.28085C15.5893 3.90577 15.8 3.39706 15.8 2.86661C15.8 2.33617 15.5893 1.82745 15.2142 1.45237C14.8391 1.07729 14.3304 0.866577 13.7999 0.866577C13.2695 0.866577 12.7608 1.07729 12.3857 1.45237C12.0106 1.82745 11.7999 2.33617 11.7999 2.86661C11.7999 3.39706 12.0106 3.90577 12.3857 4.28085C12.7608 4.65593 13.2695 4.86665 13.7999 4.86665Z" stroke="#424242" stroke-width="1.5"/>
<path d="M4.19978 5.57464L7.40104 4.46582L11.7999 6.56546L7.40104 9.84432L11.7999 12.7404L9.00307 16.466" stroke="#424242" stroke-width="1.5" stroke-linecap="round" stroke-linejoin="round"/>
<path d="M13.5279 7.52392L14.6 8.10753L17 5.85309" stroke="#424242" stroke-width="1.5" stroke-linecap="round" stroke-linejoin="round"/>
<path d="M6.13941 11.4847L4.95138 13.0496L1.00131 15.2656" stroke="#424242" stroke-width="1.5" stroke-linecap="round" stroke-linejoin="round"/>
</svg>
