<?xml version="1.0" encoding="utf-8"?>
<!-- Generator: Adobe Illustrator 26.0.0, SVG Export Plug-In . SVG Version: 6.00 Build 0)  -->
<svg version="1.1" id="Capa_1" xmlns="http://www.w3.org/2000/svg" xmlns:xlink="http://www.w3.org/1999/xlink" x="0px" y="0px"
	 viewBox="0 0 30 30" style="enable-background:new 0 0 30 30;" xml:space="preserve">
<style type="text/css">
	.st0{fill:url(#SVGID_1_);}
	.st1{fill:#FFFFFF;}
</style>
<linearGradient id="SVGID_1_" gradientUnits="userSpaceOnUse" x1="0.342" y1="-1032" x2="29.5846" y2="-1032" gradientTransform="matrix(1 0 0 -1 0 -1017)">
	<stop  offset="0" style="stop-color:#FBBC04"/>
	<stop  offset="1" style="stop-color:#EA4335"/>
</linearGradient>
<path class="st0" d="M15,29.6c8.1,0,14.6-6.5,14.6-14.6S23.1,0.4,15,0.4S0.4,6.9,0.4,15S6.9,29.6,15,29.6z"/>
<path class="st1" d="M22.3,7H7.7c-1.6,0-3,1.3-3,3v10.2c0,1.6,1.3,3,3,3h14.5c1.6,0,3-1.3,3-3V9.9C25.2,8.3,23.9,7,22.3,7z
	 M22.3,8.4c0.1,0,0.2,0,0.4,0l-6.1,7c-0.4,0.4-0.9,0.7-1.5,0.7c-0.6,0-1.1-0.2-1.5-0.7l-6.1-7c0.1,0,0.2,0,0.4,0H22.3z M23.8,20.1
	c0,0.8-0.7,1.5-1.5,1.5H7.7c-0.8,0-1.5-0.7-1.5-1.5V9.9c0-0.2,0-0.4,0.1-0.6l6.2,7c0.6,0.7,1.6,1.1,2.5,1.1c1,0,1.9-0.4,2.5-1.1
	l6.2-7c0.1,0.2,0.1,0.4,0.1,0.6V20.1z"/>
</svg>
