<svg width="21" height="21" viewBox="0 0 21 21" fill="none" xmlns="http://www.w3.org/2000/svg">
<path d="M3.4125 15.0938H17.5875C17.7964 15.0938 17.9967 15.1744 18.1443 15.318C18.292 15.4616 18.375 15.6563 18.375 15.8594C18.375 16.0624 18.292 16.2572 18.1443 16.4008C17.9967 16.5443 17.7964 16.625 17.5875 16.625H3.4125C3.20364 16.625 3.00334 16.5443 2.85565 16.4008C2.70797 16.2572 2.625 16.0624 2.625 15.8594C2.625 15.6563 2.70797 15.4616 2.85565 15.318C3.00334 15.1744 3.20364 15.0938 3.4125 15.0938ZM4.2 4.375H16.8C17.2177 4.375 17.6183 4.53633 17.9137 4.82349C18.2091 5.11066 18.375 5.50014 18.375 5.90625V13.5625C18.375 13.7656 18.292 13.9603 18.1443 14.1039C17.9967 14.2475 17.7964 14.3281 17.5875 14.3281H3.4125C3.20364 14.3281 3.00334 14.2475 2.85565 14.1039C2.70797 13.9603 2.625 13.7656 2.625 13.5625V5.90625C2.625 5.50014 2.79094 5.11066 3.08631 4.82349C3.38168 4.53633 3.78228 4.375 4.2 4.375ZM16.8 12.7969V5.90625H4.2V12.7969H16.8Z" fill="#424242"/>
</svg>
