<svg width="30" height="30" viewBox="0 0 30 30" fill="none" xmlns="http://www.w3.org/2000/svg">
<path d="M15 29.2C23.0634 29.2 29.6 22.6634 29.6 14.6C29.6 6.53664 23.0634 0 15 0C6.93667 0 0.400024 6.53664 0.400024 14.6C0.400024 22.6634 6.93667 29.2 15 29.2Z" fill="url(#paint0_linear_519_316)"/>
<path d="M19.6 9.10004C19 9.10004 18.6 9.50004 18.6 10.1C18.6 10.7 19.1 11.1 19.6 11.1C20.2 11.1 20.6 10.6 20.6 10.1C20.6 9.50004 20.1 9.10004 19.6 9.10004Z" fill="white"/>
<path d="M15.1 10.4C12.8 10.4 10.9 12.3 10.9 14.6C10.9 16.9 12.8 18.8 15.1 18.8C17.4 18.8 19.3 16.9 19.3 14.6C19.3 12.3 17.4 10.4 15.1 10.4ZM15.1 17.3C13.6 17.3 12.4 16.1 12.4 14.6C12.4 13.1 13.6 11.9 15.1 11.9C16.6 11.9 17.8 13.1 17.8 14.6C17.8 16.1 16.6 17.3 15.1 17.3Z" fill="white"/>
<path d="M18.4 23.2H11.6C8.8 23.2 6.5 20.9 6.5 18.1V11.3C6.5 8.50001 8.8 6.20001 11.6 6.20001H18.4C21.2 6.20001 23.5 8.50001 23.5 11.3V18.1C23.6 20.8 21.3 23.2 18.4 23.2ZM11.6 7.60001C9.6 7.60001 8.1 9.20001 8.1 11.1V17.9C8.1 19.9 9.7 21.4 11.6 21.4H18.4C20.4 21.4 21.9 19.8 21.9 17.9V11.1C21.9 9.10001 20.3 7.60001 18.4 7.60001H11.6V7.60001Z" fill="white"/>
<defs>
<linearGradient id="paint0_linear_519_316" x1="24.9406" y1="4.6775" x2="5.01472" y2="24.6035" gradientUnits="userSpaceOnUse">
<stop offset="0.0011048" stop-color="#FBE18A"/>
<stop offset="0.2094" stop-color="#FCBB45"/>
<stop offset="0.3765" stop-color="#F75274"/>
<stop offset="0.5238" stop-color="#D53692"/>
<stop offset="0.7394" stop-color="#8F39CE"/>
<stop offset="1" stop-color="#5B4FE9"/>
</linearGradient>
</defs>
</svg>
