<?xml version="1.0" encoding="utf-8"?>
<!-- Generator: Adobe Illustrator 26.0.0, SVG Export Plug-In . SVG Version: 6.00 Build 0)  -->
<svg version="1.1" id="Capa_1" xmlns="http://www.w3.org/2000/svg" xmlns:xlink="http://www.w3.org/1999/xlink" x="0px" y="0px"
	 viewBox="0 0 30 31" style="enable-background:new 0 0 30 31;" xml:space="preserve">
<style type="text/css">
	.st0{fill:url(#SVGID_1_);}
	.st1{fill:#FFFFFF;}
</style>
<linearGradient id="SVGID_1_" gradientUnits="userSpaceOnUse" x1="0.342" y1="16.5" x2="29.5846" y2="16.5" gradientTransform="matrix(1 0 0 -1 0 32)">
	<stop  offset="0" style="stop-color:#007AB5"/>
	<stop  offset="1" style="stop-color:#0046E5"/>
</linearGradient>
<path class="st0" d="M15,30.1c8.1,0,14.6-6.5,14.6-14.6c0-8.1-6.5-14.6-14.6-14.6C6.9,0.9,0.4,7.4,0.4,15.5
	C0.4,23.6,6.9,30.1,15,30.1z"/>
<g>
	<path class="st1" d="M8.4,13.2h2.8v9.1H8.4V13.2z M9.8,8.7c0.9,0,1.6,0.7,1.6,1.6c0,0.9-0.7,1.6-1.6,1.6c-0.9,0-1.6-0.7-1.6-1.6
		C8.2,9.4,8.9,8.7,9.8,8.7z"/>
	<path class="st1" d="M13,13.2h2.7v1.2c0.4-0.7,1.3-1.5,2.7-1.5c2.9,0,3.4,1.9,3.4,4.3v5H19v-4.4c0-1.1,0-2.4-1.5-2.4
		s-1.7,1.1-1.7,2.3v4.5H13V13.2L13,13.2z"/>
</g>
</svg>
