<?xml version="1.0" encoding="utf-8"?>
<!-- Generator: Adobe Illustrator 26.0.0, SVG Export Plug-In . SVG Version: 6.00 Build 0)  -->
<svg version="1.1" id="Capa_1" xmlns="http://www.w3.org/2000/svg" xmlns:xlink="http://www.w3.org/1999/xlink" x="0px" y="0px"
	 viewBox="0 0 80 50.9" style="enable-background:new 0 0 80 50.9;" xml:space="preserve">
<style type="text/css">
	.st0{fill:#454EFF;}
</style>
<path class="st0" d="M0,0.6h7.3v31.9H0V0.6z M25.4,33c-2.6,0-5-0.3-7.3-1s-4.2-1.6-5.7-2.7l2.6-5.6c1.3,1,3,1.8,4.9,2.4
	s3.8,0.9,5.7,0.9c2.1,0,3.7-0.3,4.7-0.9c1-0.7,1.6-1.4,1.6-2.6c0-0.8-0.3-1.3-0.9-1.9s-1.3-0.9-2.3-1.2c-0.9-0.3-2.1-0.7-3.8-1
	c-2.4-0.6-4.4-1.1-6-1.8c-1.6-0.6-2.9-1.6-4-2.8s-1.7-3-1.7-5.1c0-1.9,0.6-3.6,1.6-5c1-1.6,2.6-2.7,4.6-3.6S23.8,0,26.7,0
	c2,0,4,0.2,6,0.8c2,0.4,3.7,1.2,5.1,2.1l-2.3,5.6c-3-1.7-5.9-2.6-8.9-2.6c-2.1,0-3.6,0.3-4.6,1s-1.4,1.6-1.4,2.7s0.6,1.9,1.7,2.4
	c1.1,0.6,2.9,1,5.2,1.6c2.4,0.6,4.4,1.1,6,1.8c1.6,0.6,2.9,1.4,4,2.8c1.1,1.2,1.7,2.9,1.7,5.1c0,1.8-0.6,3.4-1.6,5
	c-1,1.4-2.6,2.7-4.6,3.6C30.9,32.6,28.3,33,25.4,33z M73.1,32.4V13.3l-9.4,15.8h-3.3L51,13.8v18.8h-6.9V0.7h6.1l11.9,19.8L73.9,0.7
	H80v31.9h-6.9V32.4z"/>
<path class="st0" d="M0,34.9h3.1c1,0,1.8,0.2,2.2,0.8C5.7,36.3,6.1,37,6.1,38v6.4c0,1-0.2,1.8-0.8,2.3c-0.6,0.6-1.2,0.8-2.2,0.8H0
	V34.9z M3,45.8c0.3,0,0.6-0.1,0.8-0.3C4,45.2,4,44.9,4,44.5v-6.7c0-0.4-0.1-0.8-0.2-1c-0.2-0.2-0.4-0.3-0.8-0.3H2v9.3H3z M15.9,34.9
	h5.4v1.8h-3.4V40h2.8v1.8h-2.8v3.9h3.4v1.8h-5.4V34.9z M33.6,47.8c-1,0-1.7-0.2-2.2-0.8c-0.4-0.6-0.8-1.3-0.8-2.3v-0.8h1.9v0.9
	c0,0.8,0.3,1.2,1,1.2c0.3,0,0.6-0.1,0.8-0.3s0.2-0.6,0.2-1c0-0.6-0.1-1-0.3-1.4s-0.7-0.9-1.3-1.4c-0.8-0.8-1.4-1.3-1.8-2
	c-0.3-0.6-0.4-1.2-0.4-2c0-1,0.2-1.8,0.8-2.3c0.6-0.6,1.2-0.9,2.2-0.9s1.7,0.3,2.1,0.9s0.8,1.3,0.8,2.3v0.6h-1.9v-0.6
	c0-0.4-0.1-0.8-0.2-1c-0.2-0.2-0.4-0.3-0.8-0.3c-0.7,0-1,0.4-1,1.2c0,0.4,0.1,0.9,0.3,1.3s0.7,0.9,1.3,1.4c0.9,0.8,1.4,1.4,1.8,2
	s0.4,1.3,0.4,2.1c0,1-0.2,1.9-0.8,2.4C35.2,47.5,34.6,47.8,33.6,47.8z M46.1,34.9h2v12.8h-2V34.9z M60.9,47.8c-1,0-1.7-0.2-2.2-0.8
	s-0.8-1.3-0.8-2.3V38c0-1,0.2-1.8,0.8-2.3c0.6-0.6,1.2-0.9,2.2-0.9s1.7,0.3,2.2,0.9c0.6,0.6,0.8,1.3,0.8,2.3v1.1H62v-1.3
	c0-0.9-0.3-1.2-1-1.2s-1,0.4-1,1.2v7c0,0.8,0.3,1.2,1,1.2s1-0.4,1-1.2v-2.6h-1v-1.8h2.9v4.2c0,1-0.2,1.8-0.8,2.3
	C62.7,47.5,61.9,47.8,60.9,47.8z M73.7,34.9h2.6l2,7.7l0,0v-7.7H80v12.8h-2.1l-2.4-9.3l0,0v9.3h-1.8V34.9z"/>
<rect y="49.6" class="st0" width="80" height="1.3"/>
</svg>
