<svg width="16" height="17" viewBox="0 0 16 17" fill="none" xmlns="http://www.w3.org/2000/svg">
<path d="M12.9333 10.5C12.8446 10.7011 12.8181 10.9241 12.8573 11.1404C12.8965 11.3567 12.9996 11.5562 13.1533 11.7134L13.1933 11.7534C13.3173 11.8772 13.4156 12.0242 13.4827 12.1861C13.5498 12.348 13.5844 12.5215 13.5844 12.6967C13.5844 12.8719 13.5498 13.0454 13.4827 13.2073C13.4156 13.3691 13.3173 13.5162 13.1933 13.64C13.0695 13.764 12.9225 13.8623 12.7606 13.9294C12.5987 13.9965 12.4252 14.0311 12.25 14.0311C12.0748 14.0311 11.9013 13.9965 11.7394 13.9294C11.5775 13.8623 11.4305 13.764 11.3067 13.64L11.2667 13.6C11.1095 13.4463 10.91 13.3432 10.6937 13.304C10.4775 13.2648 10.2544 13.2913 10.0533 13.38C9.85615 13.4645 9.68799 13.6048 9.56954 13.7837C9.45109 13.9626 9.38752 14.1722 9.38667 14.3867V14.5C9.38667 14.8536 9.24619 15.1928 8.99614 15.4428C8.74609 15.6929 8.40696 15.8334 8.05333 15.8334C7.69971 15.8334 7.36057 15.6929 7.11053 15.4428C6.86048 15.1928 6.72 14.8536 6.72 14.5V14.44C6.71484 14.2194 6.64341 14.0053 6.51501 13.8258C6.3866 13.6463 6.20716 13.5095 6 13.4334C5.79892 13.3446 5.57587 13.3181 5.35961 13.3573C5.14335 13.3966 4.94379 13.4997 4.78667 13.6534L4.74667 13.6934C4.62284 13.8173 4.47579 13.9157 4.31392 13.9828C4.15206 14.0499 3.97856 14.0844 3.80333 14.0844C3.62811 14.0844 3.45461 14.0499 3.29275 13.9828C3.13088 13.9157 2.98383 13.8173 2.86 13.6934C2.73603 13.5695 2.63769 13.4225 2.57059 13.2606C2.50349 13.0987 2.46895 12.9252 2.46895 12.75C2.46895 12.5748 2.50349 12.4013 2.57059 12.2394C2.63769 12.0776 2.73603 11.9305 2.86 11.8067L2.9 11.7667C3.05369 11.6096 3.15679 11.41 3.196 11.1937C3.23522 10.9775 3.20874 10.7544 3.12 10.5534C3.03549 10.3562 2.89517 10.188 2.71631 10.0696C2.53745 9.95111 2.32786 9.88754 2.11333 9.88669H2C1.64638 9.88669 1.30724 9.74621 1.05719 9.49616C0.807144 9.24611 0.666668 8.90698 0.666668 8.55335C0.666668 8.19973 0.807144 7.86059 1.05719 7.61054C1.30724 7.3605 1.64638 7.22002 2 7.22002H2.06C2.28066 7.21486 2.49467 7.14343 2.6742 7.01503C2.85373 6.88662 2.99048 6.70718 3.06667 6.50002C3.15541 6.29894 3.18188 6.07589 3.14267 5.85963C3.10346 5.64336 3.00036 5.44381 2.84667 5.28669L2.80667 5.24669C2.6827 5.12286 2.58435 4.9758 2.51725 4.81394C2.45016 4.65208 2.41562 4.47857 2.41562 4.30335C2.41562 4.12813 2.45016 3.95463 2.51725 3.79277C2.58435 3.6309 2.6827 3.48385 2.80667 3.36002C2.9305 3.23605 3.07755 3.13771 3.23941 3.07061C3.40128 3.00351 3.57478 2.96897 3.75 2.96897C3.92522 2.96897 4.09872 3.00351 4.26059 3.07061C4.42245 3.13771 4.5695 3.23605 4.69333 3.36002L4.73333 3.40002C4.89045 3.55371 5.09001 3.65681 5.30628 3.69602C5.52254 3.73524 5.74559 3.70876 5.94667 3.62002H6C6.19718 3.53551 6.36535 3.39519 6.4838 3.21633C6.60225 3.03747 6.66581 2.82788 6.66667 2.61335V2.50002C6.66667 2.1464 6.80714 1.80726 7.05719 1.55721C7.30724 1.30716 7.64638 1.16669 8 1.16669C8.35362 1.16669 8.69276 1.30716 8.94281 1.55721C9.19286 1.80726 9.33333 2.1464 9.33333 2.50002V2.56002C9.33419 2.77454 9.39776 2.98414 9.51621 3.163C9.63466 3.34186 9.80282 3.48218 10 3.56669C10.2011 3.65543 10.4241 3.6819 10.6404 3.64269C10.8567 3.60348 11.0562 3.50038 11.2133 3.34669L11.2533 3.30669C11.3772 3.18272 11.5242 3.08437 11.6861 3.01727C11.8479 2.95017 12.0214 2.91564 12.1967 2.91564C12.3719 2.91564 12.5454 2.95017 12.7073 3.01727C12.8691 3.08437 13.0162 3.18272 13.14 3.30669C13.264 3.43052 13.3623 3.57757 13.4294 3.73943C13.4965 3.9013 13.531 4.0748 13.531 4.25002C13.531 4.42524 13.4965 4.59874 13.4294 4.76061C13.3623 4.92247 13.264 5.06952 13.14 5.19335L13.1 5.23335C12.9463 5.39047 12.8432 5.59003 12.804 5.80629C12.7648 6.02256 12.7913 6.24561 12.88 6.44669V6.50002C12.9645 6.6972 13.1048 6.86536 13.2837 6.98382C13.4626 7.10227 13.6721 7.16583 13.8867 7.16669H14C14.3536 7.16669 14.6928 7.30716 14.9428 7.55721C15.1929 7.80726 15.3333 8.1464 15.3333 8.50002C15.3333 8.85364 15.1929 9.19278 14.9428 9.44283C14.6928 9.69288 14.3536 9.83335 14 9.83335H13.94C13.7255 9.83421 13.5159 9.89777 13.337 10.0162C13.1582 10.1347 13.0178 10.3028 12.9333 10.5V10.5Z" fill="#424242"/>
<path d="M8 10.5C9.10457 10.5 10 9.60457 10 8.5C10 7.39543 9.10457 6.5 8 6.5C6.89543 6.5 6 7.39543 6 8.5C6 9.60457 6.89543 10.5 8 10.5Z" stroke="#D8ECFF" stroke-linecap="round" stroke-linejoin="round"/>
</svg>
