<svg width="31" height="30" viewBox="0 0 31 30" fill="none" xmlns="http://www.w3.org/2000/svg">
<path d="M15.5 29.2C23.5634 29.2 30.1 22.6634 30.1 14.6C30.1 6.53664 23.5634 0 15.5 0C7.43667 0 0.900024 6.53664 0.900024 14.6C0.900024 22.6634 7.43667 29.2 15.5 29.2Z" fill="url(#paint0_linear_519_309)"/>
<path d="M23.6 9.59999C23.1 9.79999 22.5 9.99999 22 10.1C22.3 10.1 22.6 9.59998 22.8 9.39998C23 9.09998 23.2 8.79999 23.3 8.39999V8.29998H23.2C22.6 8.59998 22 8.89999 21.3 8.99999C21.2 8.99999 21.2 8.99999 21.2 8.99999C21.1 8.89999 21.1 8.89998 21 8.79998C20.7 8.59998 20.4 8.39999 20.1 8.19999C19.7 7.99999 19.2 7.89998 18.7 7.99998C18.2 7.99998 17.8 8.19999 17.4 8.39999C17 8.59999 16.6 8.89998 16.3 9.29998C16 9.69998 15.8 10.1 15.7 10.6C15.6 11.1 15.6 11.5 15.7 12C15.7 12.1 15.7 12.1 15.6 12.1C13 11.7 10.8 10.8 9.00003 8.79998C8.90003 8.69998 8.90002 8.69998 8.80002 8.79998C8.00002 9.99998 8.40002 11.8 9.40002 12.7C9.50002 12.8 9.70002 12.9 9.80002 13.1C9.70002 13.1 9.10003 13 8.50003 12.7C8.40003 12.7 8.40002 12.7 8.40002 12.8C8.40002 12.9 8.40002 13 8.40002 13.2C8.50002 14.4 9.40003 15.5 10.5 15.9C10.6 16 10.8 16 10.9 16C10.6 16.1 10.4 16.1 9.70003 16C9.60003 16 9.60002 16 9.60002 16.1C10.1 17.6 11.3 18 12.2 18.3C12.3 18.3 12.4 18.3 12.6 18.3C12.3 18.7 11.3 19.1 10.8 19.2C9.90002 19.5 9.00002 19.6 8.10002 19.5C8.00002 19.5 7.90002 19.5 7.90002 19.5V19.6C8.10002 19.7 8.30003 19.8 8.50003 19.9C9.10003 20.2 9.70002 20.5 10.3 20.6C13.6 21.5 17.2 20.8 19.7 18.4C21.6 16.5 22.3 13.9 22.3 11.2C22.3 11.1 22.4 11 22.5 11C23 10.6 23.4 10.2 23.8 9.69999C23.6 9.69999 23.6 9.59999 23.6 9.59999C23.6 9.59999 23.6 9.49999 23.6 9.59999Z" fill="white"/>
<defs>
<linearGradient id="paint0_linear_519_309" x1="0.881424" y1="14.5994" x2="30.1242" y2="14.5994" gradientUnits="userSpaceOnUse">
<stop stop-color="#33CCFF"/>
<stop offset="1" stop-color="#337FFF"/>
</linearGradient>
</defs>
</svg>
