<svg width="30" height="30" viewBox="0 0 30 30" fill="none" xmlns="http://www.w3.org/2000/svg">
<path d="M14.7 29.7C22.7633 29.7 29.3 23.1634 29.3 15.1C29.3 7.03664 22.7633 0.5 14.7 0.5C6.63662 0.5 0.0999756 7.03664 0.0999756 15.1C0.0999756 23.1634 6.63662 29.7 14.7 29.7Z" fill="url(#paint0_linear_519_329)"/>
<path d="M23.4 10.5C23.4 11.4 23.2 12.2 22.9 13C22.4 14.4 21.6 15.6 20.8 16.8C19.6 18.4 18.4 20 16.9 21.3C16.1 21.9 15.3 22.5 14.3 22.7C13.6 22.8 13 22.7 12.5 22.2C11.8 21.5 11.4 20.7 11.1 19.7C10.6 18 10.1 16.2 9.69998 14.5C9.49998 13.9 9.29998 13.4 9.09998 12.8C8.99998 12.7 8.99998 12.6 8.89998 12.5C8.49998 11.9 8.19998 11.8 7.59998 12.2C7.39998 12.3 7.19998 12.5 6.89998 12.6C6.79998 12.7 6.69998 12.7 6.59998 12.6C6.39998 12.3 6.19999 12.1 5.99999 11.8C5.89999 11.7 5.89999 11.6 5.99999 11.5C7.19999 10.5 8.29998 9.29998 9.69998 8.39998C10.2 8.09998 10.7 7.79998 11.3 7.79998C11.9 7.79998 12.4 8.09998 12.8 8.59998C13.2 9.19998 13.4 9.79998 13.5 10.5C13.8 12.1 14 13.7 14.4 15.2C14.5 15.7 14.7 16.2 14.9 16.7C15.2 17.3 15.6 17.3 16 16.9C17 15.9 17.7 14.7 18.2 13.3C18.3 13 18.3 12.7 18.3 12.4C18.3 11.8 17.9 11.5 17.3 11.4C16.9 11.4 16.5 11.4 16.1 11.6C15.9 11.7 15.8 11.6 15.9 11.4C16.3 10.3 16.8 9.29998 17.8 8.49998C18.9 7.59998 20.2 7.39998 21.6 7.69998C22.6 7.89998 23.1 8.69998 23.3 9.69998C23.4 9.99998 23.4 10.2 23.4 10.5Z" fill="white"/>
<defs>
<linearGradient id="paint0_linear_519_329" x1="27.8243" y1="1.9709" x2="4.82447" y2="24.9707" gradientUnits="userSpaceOnUse">
<stop stop-color="#70AED7"/>
<stop offset="1" stop-color="#70C8E6"/>
</linearGradient>
</defs>
</svg>
