<svg width="31" height="30" viewBox="0 0 31 30" fill="none" xmlns="http://www.w3.org/2000/svg">
<path d="M15.5 29.7C23.5634 29.7 30.1 23.1634 30.1 15.1C30.1 7.03664 23.5634 0.5 15.5 0.5C7.43667 0.5 0.900024 7.03664 0.900024 15.1C0.900024 23.1634 7.43667 29.7 15.5 29.7Z" fill="url(#paint0_linear_519_312)"/>
<path d="M7.60004 23.4L8.80003 18.9C8.10003 17.7 7.70004 16.3 7.70004 14.8C7.70004 10.2 11.5 6.40002 16.1 6.40002C20.7 6.40002 24.5 10.2 24.5 14.8C24.5 19.4 20.7 23.2 16.1 23.2C14.7 23.2 13.3 22.8 12.1 22.2L7.60004 23.4ZM12.4 20.4L12.7 20.6C13.8 21.2 15 21.6 16.2 21.6C20 21.6 23 18.5 23 14.8C23 11.1 19.9 8.00003 16.2 8.00003C12.4 8.00003 9.40004 11.1 9.40004 14.8C9.40004 16 9.70004 17.3 10.4 18.3L10.6 18.6L9.90004 21.1L12.4 20.4Z" fill="white"/>
<path fill-rule="evenodd" clip-rule="evenodd" d="M19.3 15.9C19 15.7 18.5 15.5 18.1 15.6C17.8 15.7 17.6 16.2 17.4 16.5C17.3 16.6 17.2 16.6 17 16.6C15.8 16.1 14.9 15.3 14.3 14.3C14.2 14.1 14.2 14 14.3 13.8C14.5 13.6 14.7 13.3 14.8 13C14.9 12.7 14.7 12.3 14.6 12.1C14.4 11.7 14.3 11.2 13.9 11C13.6 10.8 13.1 10.9 12.9 11.2C12.4 11.6 12.2 12.2 12.2 12.9C12.2 13.1 12.2 13.3 12.3 13.4C12.4 13.8 12.6 14.2 12.8 14.6C13 14.9 13.1 15.1 13.3 15.4C13.9 16.3 14.7 17 15.6 17.5C16.1 17.8 16.5 18 17 18.2C17.6 18.4 18.1 18.6 18.7 18.5C19.3 18.4 20 18 20.2 17.4C20.3 17.2 20.3 17 20.3 16.8C20.2 16.3 19.6 16.1 19.3 15.9Z" fill="white"/>
<defs>
<linearGradient id="paint0_linear_519_312" x1="26.9405" y1="3.6458" x2="3.71312" y2="26.8731" gradientUnits="userSpaceOnUse">
<stop stop-color="#60FC7C"/>
<stop offset="1" stop-color="#4AB161"/>
</linearGradient>
</defs>
</svg>
